<svg xmlns="http://www.w3.org/2000/svg" width="1664" height="1772" viewBox="0 0 1664 1772" version="1.1">
	<path d="M 1310.730 61.585 C 1308.768 75.657, 1306.962 87.371, 1306.716 87.617 C 1306.471 87.862, 1294.866 90.092, 1280.928 92.572 C 1266.990 95.051, 1255.449 97.218, 1255.280 97.387 C 1254.929 97.737, 1292.568 116.409, 1298.250 118.703 C 1300.888 119.768, 1302 120.831, 1302 122.288 C 1302 124.635, 1296.241 167.244, 1295.437 170.848 C 1295.149 172.139, 1295.322 173.039, 1295.821 172.848 C 1296.321 172.657, 1304.527 164.400, 1314.057 154.500 C 1323.586 144.600, 1331.878 136.373, 1332.482 136.217 C 1333.085 136.062, 1343.831 140.942, 1356.360 147.063 C 1368.890 153.184, 1379.333 158.001, 1379.566 157.767 C 1379.800 157.533, 1375.437 148.827, 1369.870 138.421 C 1364.303 128.014, 1358.832 117.624, 1357.714 115.330 L 1355.680 111.161 1373.802 92.375 C 1383.769 82.044, 1391.777 73.443, 1391.598 73.264 C 1391.418 73.085, 1379.909 74.972, 1366.021 77.457 C 1352.133 79.942, 1340.407 81.751, 1339.964 81.478 C 1339.520 81.204, 1333.835 70.869, 1327.329 58.512 C 1320.823 46.156, 1315.229 36.035, 1314.898 36.023 C 1314.567 36.010, 1312.691 47.513, 1310.730 61.585 M 1153.122 109.019 C 1145.214 127.158, 1138.395 142, 1137.968 142 C 1137.542 142, 1121.333 140.416, 1101.949 138.481 C 1082.565 136.545, 1066.550 135.117, 1066.361 135.306 C 1066.171 135.496, 1078.162 146.403, 1093.008 159.544 C 1107.854 172.685, 1120 183.755, 1120 184.143 C 1120 184.531, 1117.281 191.070, 1113.958 198.674 L 1107.915 212.500 1096.208 216.906 C 1065.068 228.625, 1033.029 243.721, 1010.724 257.185 C 985.466 272.430, 975.349 280.322, 900 343.558 C 853.847 382.291, 816.867 410.343, 807.032 414.080 C 804.450 415.061, 795.399 417.064, 786.919 418.532 C 734.613 427.583, 694.463 443.339, 663.954 466.784 C 658.432 471.028, 652.240 475.696, 650.193 477.158 C 648.146 478.619, 640.090 485.835, 632.290 493.192 C 617.504 507.138, 609.123 512.999, 600.239 515.605 L 594.978 517.148 588.835 511.589 C 579.745 503.363, 575.325 501.496, 565 501.520 C 553.792 501.547, 547.326 504.594, 537.500 514.482 C 528.470 523.569, 525.659 529.162, 525.178 539.001 C 524.725 548.256, 526.798 555.034, 534.660 570 C 541.462 582.949, 544.888 587.550, 558.297 601.738 C 577.028 621.558, 583.820 636.582, 591.077 674.243 C 592.785 683.106, 595.544 694.214, 597.207 698.926 C 603.885 717.846, 616.454 739.069, 636.931 766 C 651.755 785.496, 657.960 798.893, 663.399 823.144 C 666.271 835.951, 669 857.191, 669 866.744 C 669 870.185, 669.384 873, 669.853 873 C 670.323 873, 672.867 869.737, 675.508 865.750 C 683.557 853.598, 688.932 846.948, 699.267 836.360 C 705.455 830.019, 708.738 825.956, 708.029 825.518 C 707.404 825.132, 704.330 825.111, 701.197 825.472 C 694.271 826.270, 683.110 824.607, 678.043 822.022 C 670.077 817.958, 665.207 808.747, 663.473 794.464 C 662.557 786.919, 661.968 785.804, 655.043 778.500 C 650.145 773.333, 649.192 771.682, 648.183 766.612 C 647.539 763.374, 644.984 757.004, 642.506 752.458 C 635.798 740.152, 636.280 737.553, 647.216 727.063 L 654.500 720.076 654.419 703.788 C 654.345 688.842, 654.130 686.964, 651.806 681 C 648.495 672.504, 639.835 655.265, 629.248 636.095 C 619.814 619.013, 613.373 605.585, 610.254 596.500 C 606.580 585.794, 597.988 543.679, 599.226 542.441 C 600.790 540.877, 644.502 534.765, 667.500 532.895 C 683.786 531.571, 733.831 532.261, 744.500 533.957 C 748.350 534.569, 765.476 536.840, 782.558 539.004 C 799.640 541.168, 835.190 545.864, 861.558 549.439 C 971.402 564.332, 1014.093 568.026, 1059.500 566.566 C 1132.369 564.223, 1183.047 552.270, 1235.500 525.054 C 1258.942 512.891, 1271.766 507.366, 1273.209 508.809 C 1273.830 509.430, 1277.797 516.767, 1282.025 525.112 C 1288.281 537.463, 1289.817 539.841, 1290.278 537.893 C 1290.590 536.577, 1292.048 527.833, 1293.517 518.462 L 1296.189 501.424 1315.094 498.512 C 1325.492 496.910, 1334 495.342, 1334 495.026 C 1334 494.711, 1326.350 490.649, 1317 486 C 1307.650 481.351, 1300 477.400, 1300 477.220 C 1300 476.886, 1304.501 448.324, 1305.550 442 C 1306.099 438.691, 1305.370 439.256, 1292.220 452.333 L 1278.308 466.165 1261.165 457.583 C 1251.737 452.862, 1243.778 449, 1243.480 449 C 1243.182 449, 1246.989 456.762, 1251.940 466.250 L 1260.942 483.500 1247.221 497.352 L 1233.500 511.203 1239.500 510.598 L 1245.500 509.992 1230.500 517.654 C 1197.552 534.484, 1170.787 543.805, 1136.500 550.388 C 1104.497 556.533, 1078.161 558.421, 1034.500 557.700 C 983.649 556.860, 968.302 555.324, 843.500 538.580 C 746.614 525.582, 741.905 525.018, 721.920 524.021 C 709.443 523.398, 694.255 523.386, 679.936 523.987 C 658.372 524.892, 652.484 525.494, 621.500 529.954 C 613.800 531.062, 606.188 531.976, 604.583 531.984 L 601.667 532 605.583 528.552 C 618.829 516.891, 645.587 510.950, 722.793 502.526 C 783.066 495.950, 805.352 493.321, 833.500 489.465 C 922.420 477.285, 1007.548 458.624, 1077.558 435.965 C 1086.326 433.127, 1105.425 427.721, 1120 423.951 C 1134.575 420.180, 1151.076 415.541, 1156.668 413.642 L 1166.837 410.187 1165.330 415.262 C 1164.501 418.053, 1163.400 421.448, 1162.883 422.807 C 1162.367 424.166, 1162.094 425.427, 1162.278 425.611 C 1162.461 425.794, 1166.957 422.781, 1172.269 418.914 L 1181.927 411.883 1187.214 415.754 C 1190.121 417.883, 1194.607 421.060, 1197.182 422.814 L 1201.864 426.003 1197.936 414.308 C 1195.775 407.876, 1194.382 402.363, 1194.840 402.057 C 1195.298 401.751, 1199.601 398.575, 1204.401 395 L 1213.129 388.500 1201.830 388.215 C 1195.615 388.058, 1190.085 387.485, 1189.542 386.942 C 1188.998 386.398, 1186.898 381.352, 1184.875 375.727 C 1180.688 364.086, 1181.248 363.840, 1176.502 379.402 L 1173.879 388 1166.579 388 C 1162.564 388, 1157.186 388.287, 1154.628 388.637 L 1149.978 389.275 1156.239 393.769 C 1159.682 396.240, 1162.913 398.639, 1163.417 399.098 C 1164.607 400.182, 1154.564 404.663, 1138.125 410.382 C 1121.817 416.055, 1109.801 419.569, 1079.500 427.527 C 1066.300 430.993, 1048.300 435.921, 1039.500 438.478 C 959.927 461.597, 864.229 478.987, 750.500 490.997 C 697.452 496.600, 685.087 498.028, 677.941 499.379 C 670.050 500.871, 670.072 499.782, 678 496.487 C 680.475 495.458, 691.950 490.063, 703.500 484.498 C 733.785 469.906, 761.006 454.691, 788.500 436.986 C 805.174 426.249, 809.989 424.013, 819.921 422.396 C 832.037 420.423, 854.563 418.302, 882.500 416.503 C 895.700 415.653, 913.025 414.322, 921 413.546 C 928.975 412.771, 939.325 411.854, 944 411.511 C 956.059 410.624, 980.938 407.381, 998.500 404.408 C 1044.011 396.702, 1097.486 377.784, 1154.696 349.152 L 1174.698 339.142 1175.604 344.821 L 1176.511 350.500 1182.412 340.500 C 1185.657 335, 1188.437 330.343, 1188.589 330.150 C 1188.741 329.958, 1193.908 330.983, 1200.071 332.429 C 1206.235 333.874, 1211.461 334.873, 1211.685 334.648 C 1211.909 334.424, 1208.697 330.346, 1204.546 325.586 C 1200.396 320.825, 1197 316.739, 1197 316.505 C 1197 316.270, 1199.665 311.676, 1202.923 306.296 C 1206.181 300.915, 1208.700 296.366, 1208.521 296.187 C 1208.342 296.009, 1203.348 297.933, 1197.423 300.464 L 1186.650 305.066 1182.077 299.783 C 1174.798 291.374, 1169.761 286.368, 1170.306 288.084 C 1170.583 288.955, 1171.118 294.580, 1171.494 300.584 L 1172.178 311.500 1161.511 315.872 C 1155.644 318.277, 1151.217 320.573, 1151.672 320.975 C 1152.127 321.378, 1157.357 322.762, 1163.294 324.052 C 1172.643 326.083, 1174.048 326.649, 1173.794 328.281 C 1173.428 330.624, 1127.974 352.973, 1099 365.054 C 1047.876 386.372, 990.899 400.062, 939 403.497 C 933.775 403.843, 919.600 404.993, 907.500 406.053 C 885.943 407.943, 832.718 412, 829.494 412 C 828.596 412, 834.980 406.517, 843.681 399.815 C 875.096 375.616, 903.109 352.748, 941.500 319.963 C 969.615 295.954, 979.581 288.132, 997 276.404 C 1021.266 260.067, 1041.423 249.264, 1072 236.209 C 1086.352 230.082, 1101.573 224, 1102.556 224 C 1102.731 224, 1100.255 229.963, 1097.054 237.250 C 1093.854 244.537, 1091.338 250.618, 1091.463 250.762 C 1091.588 250.906, 1103.798 243.919, 1118.595 235.236 C 1133.393 226.554, 1147.537 218.263, 1150.026 216.814 L 1154.552 214.178 1181.514 238.124 C 1196.344 251.294, 1208.609 261.674, 1208.770 261.191 C 1208.931 260.707, 1205.658 244.834, 1201.496 225.918 C 1194.497 194.101, 1194.057 191.431, 1195.628 190.283 C 1196.561 189.600, 1210.541 181.307, 1226.694 171.853 C 1242.847 162.399, 1255.712 154.366, 1255.282 154.003 C 1254.852 153.639, 1238.666 151.824, 1219.313 149.969 L 1184.126 146.597 1182.657 140.048 C 1181.849 136.447, 1178.361 120.563, 1174.905 104.750 C 1171.450 88.938, 1168.370 76.008, 1168.061 76.019 C 1167.753 76.029, 1161.030 90.879, 1153.122 109.019 M 1525 156.659 C 1513.725 166.826, 1501.713 177.619, 1498.308 180.644 L 1492.115 186.143 1462.808 169.234 C 1429.319 149.913, 1428.575 149.501, 1429.279 150.650 C 1431.862 154.871, 1457.996 215.568, 1457.635 216.509 C 1457.374 217.189, 1445.466 228.265, 1431.173 241.122 C 1416.880 253.980, 1405.315 264.633, 1405.473 264.796 C 1405.630 264.959, 1421.333 263.447, 1440.368 261.435 C 1459.403 259.423, 1475.564 258.002, 1476.281 258.278 C 1477.370 258.695, 1483.131 271.170, 1504.247 318.833 C 1505.303 321.216, 1506.390 322.943, 1506.663 322.670 C 1506.936 322.398, 1510.421 306.837, 1514.408 288.092 C 1518.396 269.346, 1521.945 253.722, 1522.296 253.371 C 1522.647 253.019, 1538.438 251.105, 1557.386 249.116 C 1576.334 247.127, 1592.090 245.246, 1592.400 244.936 C 1592.709 244.625, 1579.088 236.356, 1562.130 226.559 L 1531.297 208.746 1532.676 202.123 C 1533.434 198.480, 1536.775 182.745, 1540.100 167.156 C 1543.425 151.567, 1546 138.668, 1545.823 138.493 C 1545.645 138.317, 1536.275 146.491, 1525 156.659 M 1304.544 202.500 C 1304.850 204.700, 1305.190 210.293, 1305.300 214.929 L 1305.500 223.358 1294.556 228.088 L 1283.612 232.818 1287.556 233.843 C 1289.725 234.407, 1295.176 235.641, 1299.668 236.587 L 1307.836 238.305 1308.550 247.821 C 1309.748 263.804, 1309.700 263.777, 1316.443 252.391 C 1319.664 246.951, 1322.401 242.369, 1322.525 242.208 C 1322.649 242.048, 1327.829 243.063, 1334.036 244.464 C 1340.243 245.865, 1345.479 246.854, 1345.673 246.661 C 1345.866 246.468, 1342.643 242.454, 1338.512 237.741 C 1334.380 233.028, 1331 228.926, 1331 228.625 C 1331 228.324, 1333.665 223.676, 1336.923 218.296 C 1340.181 212.915, 1342.700 208.366, 1342.521 208.187 C 1342.342 208.009, 1337.330 209.941, 1331.383 212.481 L 1320.570 217.100 1315.535 211.310 C 1312.766 208.125, 1309.035 203.940, 1307.244 202.010 L 1303.988 198.500 1304.544 202.500 M 1306.500 301.060 C 1298.800 314.204, 1291.996 324.968, 1291.379 324.979 C 1290.763 324.991, 1278.394 322.332, 1263.892 319.070 C 1249.391 315.809, 1237.428 313.238, 1237.308 313.359 C 1237.188 313.479, 1244.832 322.366, 1254.295 333.108 C 1263.758 343.849, 1272.082 353.352, 1272.794 354.224 C 1273.899 355.580, 1272.039 359.266, 1260.016 379.544 C 1252.276 392.597, 1246.108 403.441, 1246.308 403.642 C 1246.509 403.842, 1258.109 399.047, 1272.086 392.985 L 1297.500 381.963 1299.500 384.358 C 1306.542 392.790, 1334.385 423.948, 1334.645 423.688 C 1334.820 423.514, 1333.786 411.108, 1332.347 396.120 C 1330.841 380.428, 1330.107 368.523, 1330.616 368.054 C 1331.318 367.407, 1360.057 354.779, 1377.858 347.295 C 1379.705 346.518, 1381.043 345.709, 1380.831 345.497 C 1380.619 345.285, 1369.208 342.619, 1355.473 339.573 C 1341.738 336.526, 1329.572 333.814, 1328.439 333.545 C 1326.502 333.086, 1326.239 331.526, 1324.084 307.778 C 1322.822 293.875, 1321.500 281.299, 1321.145 279.831 C 1320.577 277.482, 1318.823 280.025, 1306.500 301.060 M 1438.554 340.148 L 1431.615 358.205 1423.558 357.618 C 1406.919 356.407, 1393 355.758, 1393 356.192 C 1393 356.440, 1399.525 361.955, 1407.500 368.449 C 1415.475 374.942, 1422 380.833, 1422 381.539 C 1422 382.244, 1419.060 390.347, 1415.468 399.545 C 1411.875 408.743, 1409.117 416.451, 1409.340 416.673 C 1409.563 416.896, 1416.741 412.561, 1425.292 407.039 C 1433.843 401.518, 1441.166 397, 1441.565 397 C 1441.964 397, 1448.975 402.423, 1457.145 409.052 C 1465.315 415.680, 1471.996 420.743, 1471.992 420.302 C 1471.987 419.861, 1469.821 411.327, 1467.179 401.337 L 1462.374 383.174 1478.192 373 C 1486.893 367.405, 1493.787 362.464, 1493.513 362.021 C 1493.239 361.578, 1485.191 360.890, 1475.628 360.491 C 1466.065 360.093, 1457.710 359.439, 1457.061 359.038 C 1456.413 358.637, 1453.827 350.477, 1451.314 340.905 C 1448.802 331.332, 1446.465 323.183, 1446.119 322.796 C 1445.774 322.409, 1442.370 330.217, 1438.554 340.148 M 769 430.538 C 727.870 438.971, 689.006 456.340, 663.391 477.735 L 657.282 482.838 654.997 480.669 L 652.711 478.500 654.237 480.804 C 655.723 483.046, 655.484 483.380, 645.376 493.215 C 639.663 498.773, 635.140 503.473, 635.325 503.658 C 635.820 504.153, 667.662 491.730, 681 485.838 C 709.534 473.233, 752.101 450.421, 775.532 435.178 C 788.204 426.934, 787.839 426.675, 769 430.538 M 1147 600.161 C 1133.917 603.728, 1125.921 617.698, 1127.345 634.500 C 1128.241 645.064, 1130.308 650.514, 1137.385 660.973 C 1143.397 669.857, 1148.085 675.658, 1173.159 705.246 C 1220.617 761.245, 1259.136 827.628, 1285.008 898 C 1301.275 942.245, 1313.622 992.924, 1319.481 1039.500 C 1323.498 1071.432, 1324.399 1085.302, 1324.451 1116 C 1324.505 1148.574, 1324.122 1151.168, 1317.763 1161.275 C 1313.441 1168.146, 1308.153 1172.240, 1296.112 1178.039 C 1278.917 1186.319, 1267.002 1194.799, 1253.446 1208.403 C 1235.634 1226.277, 1225.004 1243.327, 1214.728 1270.500 C 1201.010 1306.777, 1192.600 1355.845, 1192.617 1399.500 C 1192.626 1421.999, 1193.868 1432.218, 1198.633 1449 C 1204.024 1467.989, 1213.143 1480.665, 1224.457 1484.898 C 1242.666 1491.711, 1271.983 1482.301, 1301.771 1460.083 C 1313.203 1451.557, 1332.585 1432.057, 1342.108 1419.500 C 1381.675 1367.332, 1401.011 1315.847, 1400.996 1262.699 C 1400.987 1229.447, 1394.387 1211.158, 1374.918 1190.434 C 1363.116 1177.870, 1358.049 1169.551, 1355.401 1158.387 C 1353.623 1150.893, 1353.721 1139.729, 1356.093 1079.500 C 1358.074 1029.185, 1356.308 993.075, 1349.954 954 C 1343.683 915.434, 1336.572 888.253, 1321.089 843.662 C 1315.138 826.523, 1307.908 805.300, 1305.023 796.500 C 1292.371 757.911, 1256.540 694.917, 1217.144 642 C 1197.751 615.952, 1185.544 605.439, 1169.068 600.596 C 1163.153 598.858, 1152.547 598.648, 1147 600.161 M 726.402 615.997 C 717.385 617.319, 708.179 621.034, 702.819 625.514 C 694.992 632.056, 675.333 657.268, 669.480 668.272 C 663.590 679.343, 662.043 686.501, 661.971 703 C 661.890 721.797, 661.390 723.731, 654.767 730.885 C 647.675 738.545, 646.990 741.660, 650.539 750.093 C 651.974 753.503, 654.276 759.490, 655.653 763.396 C 658.582 771.704, 660.811 774, 665.945 774 L 669.669 774 670.789 784.250 C 672.255 797.671, 675.331 807.572, 679.137 811.128 C 683.731 815.419, 690.909 816.600, 702.818 815.024 C 713.910 813.556, 715.963 814.082, 717.961 818.907 C 718.988 821.386, 718.913 822.745, 717.516 826.951 C 716.061 831.333, 714.840 832.760, 708.417 837.595 C 699.259 844.488, 690.212 855.637, 682.315 869.765 C 658.952 911.558, 649.400 932.746, 643.347 956.198 C 640.911 965.639, 640.784 967.060, 641.833 973.203 C 642.462 976.889, 644.389 984.311, 646.114 989.696 C 649.209 999.359, 649.243 999.688, 648.729 1014.993 C 648.179 1031.364, 648.031 1032.106, 639.656 1060.500 C 637.709 1067.100, 634.500 1078.575, 632.525 1086 C 626.075 1110.250, 617.209 1129.116, 601.293 1152.462 C 581.732 1181.153, 576.604 1191.488, 564.058 1227.500 C 558.389 1243.774, 551.895 1258.347, 547.268 1265.178 C 545.658 1267.555, 544.004 1270.075, 543.594 1270.778 C 543.070 1271.675, 544.874 1272.975, 549.642 1275.137 C 560.244 1279.944, 565.448 1283.690, 583.448 1299.469 C 608.694 1321.601, 621.929 1330.887, 637.224 1337.201 C 648.892 1342.017, 649.320 1342.081, 675.500 1342.886 L 700.500 1343.656 710.742 1347.783 C 724.855 1353.469, 730.604 1354.408, 751 1354.361 C 770.353 1354.317, 786.235 1352.484, 803 1348.360 C 816.555 1345.025, 818.870 1343.771, 829.578 1333.962 C 848.086 1317.008, 852.064 1315.252, 880.500 1311.479 C 915.457 1306.841, 936.939 1296.593, 951.392 1277.660 C 955.725 1271.982, 964 1258.793, 964 1257.562 C 964 1257.427, 962.087 1256.751, 959.750 1256.061 C 950.573 1253.349, 941.640 1247.676, 932.916 1239.018 C 923.142 1229.318, 916.871 1220.162, 907.305 1201.621 C 899.099 1185.719, 894.037 1180.060, 874.976 1165.482 C 867.331 1159.635, 859.632 1153.206, 857.867 1151.196 C 854.608 1147.484, 850.007 1138.273, 846.094 1127.625 L 843.934 1121.750 846.217 1122.409 C 865.420 1127.957, 875.234 1128.902, 878.932 1125.559 C 883.300 1121.611, 887.844 1110.056, 890.555 1096 C 891.988 1088.575, 896.264 1070.125, 900.058 1055 C 908.493 1021.374, 911.060 1006.969, 911.282 992 C 911.608 970.109, 906.184 960.379, 877.270 930.994 C 862.389 915.869, 856.029 907.793, 844.765 889.719 L 837.031 877.308 822.265 877.748 C 804.684 878.271, 800.133 877.255, 798.777 872.500 C 797.171 866.867, 796.669 843.670, 797.936 833.604 L 799.158 823.895 795.223 819.626 C 791.560 815.652, 781 798.946, 781 797.125 C 781 796.678, 784.633 795.798, 789.074 795.170 C 802.941 793.209, 809.225 789.308, 817.138 777.750 C 819.303 774.587, 821.696 772, 822.456 772 C 823.217 772, 826.663 772.724, 830.115 773.608 C 838.546 775.768, 843.458 775.048, 850.345 770.643 C 853.476 768.639, 856.452 767, 856.956 767 C 857.461 767, 862.361 770.167, 867.846 774.037 L 877.818 781.075 882.659 779.881 C 885.321 779.224, 891.083 777.050, 895.463 775.051 L 903.427 771.415 909.895 778.272 C 918.761 787.670, 922.594 789.700, 935.651 791.912 C 941.618 792.923, 950.837 795.381, 956.138 797.375 C 969.539 802.415, 971.432 802.214, 980.836 794.751 L 985.173 791.310 989.505 792.868 C 992.993 794.122, 994.291 794.191, 996.168 793.220 C 997.451 792.557, 1000.455 791.341, 1002.845 790.518 C 1005.235 789.695, 1010.094 786.992, 1013.643 784.511 C 1017.192 782.030, 1020.274 780, 1020.491 780 C 1020.708 780, 1025.074 782.709, 1030.193 786.020 C 1042.851 794.208, 1048.622 796.277, 1057.500 795.807 C 1066.947 795.307, 1074.426 791.759, 1081.796 784.280 C 1087.807 778.180, 1090.759 773.077, 1105.005 744.150 L 1113.057 727.800 1087.778 728.254 C 1059.798 728.757, 1053.955 729.771, 1041.507 736.285 C 1034.363 740.024, 1024.056 750.086, 1018.500 758.747 C 1015.488 763.443, 1013.927 764.985, 1012.179 764.991 C 1010.903 764.996, 1003.579 766.423, 995.904 768.162 L 981.948 771.324 972.629 769.183 C 967.504 768.006, 960.149 766.749, 956.285 766.390 L 949.259 765.737 945.881 758.754 C 944.023 754.913, 941.046 750.491, 939.265 748.928 C 935.030 745.210, 927.345 743.003, 918.568 742.986 C 914.681 742.979, 910.492 742.703, 909.260 742.372 C 908.028 742.042, 904.800 738.786, 902.086 735.136 C 892.737 722.563, 889.508 720.424, 875.529 717.537 C 871.145 716.632, 867.505 715.803, 867.441 715.696 C 867.376 715.588, 866.349 713.441, 865.157 710.924 C 861.993 704.241, 856.702 698.534, 848.605 693.071 C 836.887 685.163, 832.250 679.040, 825.457 662.500 C 816.186 639.927, 810.956 633.521, 795.632 625.968 C 784.484 620.473, 775.178 617.785, 761.500 616.109 C 751.568 614.891, 734.316 614.837, 726.402 615.997 M 194.074 662.750 C 185.389 671.530, 175.798 684.636, 160.032 709.269 C 121.774 769.042, 92.514 836.414, 75.559 903.770 C 70.991 921.917, 67 942.176, 67 947.215 C 67 957.251, 72.543 965.385, 83.179 970.957 C 99.357 979.431, 101.186 986.218, 97.073 1022.501 C 93.644 1052.751, 92.714 1073.257, 93.275 1106.247 C 93.822 1138.438, 94.422 1145.441, 100.099 1185.872 C 106.426 1230.937, 112.450 1256.728, 127.572 1303.500 C 140.517 1343.538, 146.783 1357.784, 169.135 1398 C 203.619 1460.042, 211.789 1472.677, 228.685 1490.089 C 241.093 1502.876, 246.342 1505.432, 258.883 1504.793 C 275.213 1503.962, 284.822 1495.959, 287.999 1480.545 C 290.165 1470.039, 287.554 1458.460, 280.551 1447.512 C 278.510 1444.322, 271.619 1435.364, 265.237 1427.606 C 243.866 1401.627, 235.788 1390.006, 215.806 1356.500 C 195.526 1322.496, 184.476 1303.143, 180.246 1294.223 C 174.473 1282.049, 148.976 1199.894, 140.606 1166.500 C 133.264 1137.208, 129.362 1103.047, 128.385 1059.500 C 127.626 1025.716, 128.926 1002.217, 131.928 995.427 C 136.025 986.163, 140.819 982.670, 150.957 981.560 C 161.909 980.362, 168.997 976.273, 173.529 968.541 C 175.260 965.587, 178.693 953.734, 184.019 932.325 C 192.913 896.570, 198.331 878.827, 207.477 855.500 C 223.046 815.793, 240.467 782.771, 266.564 743.500 C 278.697 725.242, 282.876 716.760, 280.907 714.388 C 280.274 713.625, 279.121 713, 278.346 713 C 275.621 713, 261.319 728.631, 252.955 740.751 C 219.353 789.440, 195.006 838.681, 176.935 894.500 C 167.184 924.618, 167.082 924.886, 164.864 926.073 C 162.433 927.374, 156.457 925.632, 155.588 923.370 C 153.402 917.671, 160.456 891.876, 174.696 853.500 C 193.623 802.490, 211.812 768.796, 251.350 711.500 C 254.765 706.550, 258.199 700.534, 258.979 698.132 C 260.282 694.122, 260.250 693.656, 258.596 692.446 C 250.361 686.425, 204.420 751.532, 177.410 807.500 C 163.590 836.137, 151.008 869.172, 140.049 905.589 C 136.587 917.094, 134.647 919.579, 129.872 918.624 C 125.511 917.752, 124 916.267, 124 912.853 C 124 906.671, 141.605 850.718, 151.013 827 C 167.654 785.045, 191.271 741.013, 217.678 702.710 C 224.690 692.538, 232 679.066, 232 676.313 C 232 675.630, 231.198 674.641, 230.218 674.117 C 223.081 670.297, 184.502 724.378, 158.003 775.350 C 142.582 805.014, 134.110 825.852, 117.830 874.156 C 111.764 892.154, 105.948 907.752, 104.873 908.906 C 102.388 911.573, 97.619 911.619, 95 909 C 92.424 906.424, 92.442 906.128, 96.044 892.238 C 114.649 820.489, 147.560 749.091, 191.684 684.751 C 202.671 668.731, 207.985 657.892, 206.017 655.521 C 205.323 654.684, 204.299 654, 203.742 654 C 203.185 654, 198.835 657.938, 194.074 662.750 M 815.028 962.265 L 810.556 974.500 809.947 998.500 C 809.382 1020.775, 809.135 1023.219, 806.518 1032.500 C 804.964 1038.013, 803.663 1045.192, 803.618 1048.500 C 803.511 1056.472, 806.754 1062.318, 816.828 1072.315 L 824.500 1079.928 838.899 1064.714 C 854.359 1048.378, 857.098 1044.057, 860.325 1030.909 C 862.548 1021.852, 863.991 1008.339, 863.946 997 L 863.909 987.500 857.704 982.809 C 854.292 980.229, 844.526 971.791, 836.001 964.059 C 827.477 956.327, 820.277 950.007, 820.001 950.015 C 819.726 950.024, 817.488 955.536, 815.028 962.265 M 1112.416 1159.412 C 1102.031 1162.664, 1096.895 1168.763, 1094.980 1180.120 C 1093.527 1188.733, 1094.222 1193.856, 1097.888 1201.568 C 1103.939 1214.298, 1115.072 1220.876, 1132 1221.726 C 1148.481 1222.553, 1161.026 1218.213, 1169.545 1208.739 C 1176.004 1201.554, 1178.414 1194.597, 1178.458 1183 C 1178.496 1173.148, 1177.434 1169.746, 1171.844 1161.810 L 1169.949 1159.119 1163.224 1164.209 C 1159.526 1167.008, 1156.518 1169.569, 1156.540 1169.899 C 1156.561 1170.230, 1157.349 1172.944, 1158.290 1175.932 C 1160.483 1182.898, 1160.421 1186.477, 1158.012 1191.784 C 1156.521 1195.068, 1155.068 1196.515, 1151.784 1197.986 L 1147.500 1199.904 1146.368 1191.202 C 1143.702 1170.711, 1140.128 1163.458, 1130.768 1159.548 C 1126.352 1157.702, 1118.073 1157.641, 1112.416 1159.412 M 1115.678 1179.451 C 1111.055 1181.100, 1109.073 1183.501, 1109.036 1187.500 C 1108.964 1195.173, 1115.856 1200.034, 1127.904 1200.807 L 1135.309 1201.283 1134.625 1195.470 C 1133.606 1186.797, 1130.808 1181.236, 1126.573 1179.466 C 1122.317 1177.688, 1120.628 1177.685, 1115.678 1179.451 M 403 1210.489 C 378.977 1214.085, 308.140 1226.700, 307.154 1227.558 C 306.963 1227.724, 307.526 1231.017, 308.404 1234.877 C 309.282 1238.737, 310 1243.546, 310 1245.564 C 310 1248.899, 310.205 1249.173, 312.250 1248.569 C 316.173 1247.412, 347.428 1241.004, 349.162 1241.002 C 350.340 1241.001, 351.031 1242.238, 351.533 1245.250 C 354.255 1261.558, 364.245 1277.003, 375.924 1282.961 C 388.636 1289.446, 410.283 1289.488, 422.900 1283.051 C 427.955 1280.472, 434.347 1273.124, 435.824 1268.193 C 438.557 1259.070, 436.526 1245.966, 430.534 1234.067 L 427.207 1227.461 429.603 1224.675 C 433.741 1219.864, 432.039 1211.750, 426.397 1209.392 C 422.231 1207.652, 421.827 1207.671, 403 1210.489 M 393 1233.453 C 385.025 1234.690, 375.256 1236.257, 371.292 1236.934 L 364.083 1238.167 364.684 1241.333 C 366.839 1252.685, 372.203 1260.484, 380.719 1264.651 C 385.595 1267.036, 387.604 1267.426, 394.948 1267.409 C 406.200 1267.383, 416.743 1264.283, 420.413 1259.921 C 425.290 1254.125, 423.331 1244.420, 415.417 1235.174 C 411.285 1230.347, 412.450 1230.436, 393 1233.453 M 1090.033 1242.589 C 1082.138 1249.722, 1077.531 1263.721, 1078.181 1278.601 C 1078.533 1286.630, 1078.957 1288.405, 1081.542 1292.646 C 1083.834 1296.408, 1085.824 1298.161, 1090.382 1300.439 C 1097.938 1304.214, 1103.910 1304.257, 1111.403 1300.591 C 1118.300 1297.217, 1122.249 1292.320, 1129.443 1278.225 C 1135.936 1265.502, 1138.461 1263.219, 1143.931 1265.126 C 1145.642 1265.722, 1147.483 1267.033, 1148.021 1268.039 C 1150.930 1273.475, 1146.816 1290.333, 1140.011 1300.862 C 1137.805 1304.275, 1136 1307.221, 1136 1307.409 C 1136 1307.596, 1137.365 1308.023, 1139.034 1308.357 C 1140.703 1308.691, 1145.059 1310.160, 1148.715 1311.623 L 1155.363 1314.282 1157.599 1311.478 C 1166.536 1300.270, 1171.501 1275.746, 1167.529 1262.432 C 1164.395 1251.927, 1154.551 1244.653, 1143.500 1244.677 C 1131.500 1244.702, 1124.520 1250.456, 1115.787 1267.521 C 1108.735 1281.302, 1106.540 1283.500, 1099.833 1283.500 C 1093.250 1283.500, 1090 1280.160, 1090 1273.395 C 1090 1267.682, 1091.955 1263.947, 1098.580 1257.001 C 1104.698 1250.587, 1106.369 1247.101, 1105.023 1243.561 C 1102.857 1237.864, 1095.772 1237.405, 1090.033 1242.589 M 369.500 1310.767 C 342.077 1320.564, 330.392 1341.264, 339.119 1364.588 C 341.486 1370.915, 348.721 1379.307, 354.234 1382.120 C 356.412 1383.231, 358.320 1383.996, 358.474 1383.820 C 358.628 1383.644, 359.768 1381.475, 361.008 1379 C 362.247 1376.525, 364.118 1373.283, 365.166 1371.796 C 367.068 1369.096, 367.067 1369.090, 364.635 1367.497 C 363.296 1366.619, 361.101 1364.236, 359.756 1362.201 C 354.264 1353.884, 353.970 1346.856, 358.868 1340.989 L 361.552 1337.774 366.670 1346.137 C 376.442 1362.104, 383.478 1368.009, 392.710 1367.990 C 401.860 1367.972, 412.954 1360.857, 417.061 1352.375 C 421.736 1342.718, 417.432 1326.419, 407.838 1317.445 C 401.056 1311.101, 395.276 1308.729, 385.500 1308.278 C 378.652 1307.962, 376.348 1308.320, 369.500 1310.767 M 1073.342 1315.473 C 1070.053 1317.777, 1067.842 1324.250, 1069.106 1327.875 C 1070.478 1331.811, 1071.896 1332.652, 1090.066 1340.307 C 1098.555 1343.884, 1109.049 1348.430, 1113.387 1350.411 L 1121.274 1354.011 1120.628 1359.508 C 1119.315 1370.680, 1115.474 1376.070, 1107.801 1377.510 C 1102.520 1378.500, 1095.839 1376.215, 1077.163 1367.033 C 1068.177 1362.615, 1059.943 1359, 1058.863 1359 C 1055.328 1359, 1050.870 1362.068, 1049.443 1365.481 C 1047.478 1370.185, 1049.116 1374.309, 1054.357 1377.852 C 1067.138 1386.493, 1093.529 1398.422, 1102.283 1399.516 C 1119.567 1401.676, 1130.197 1390.759, 1131.712 1369.293 C 1132.034 1364.732, 1132.723 1361, 1133.244 1361 C 1133.765 1361, 1135.485 1361.764, 1137.065 1362.697 C 1138.645 1363.631, 1140.119 1364.194, 1140.341 1363.947 C 1141.409 1362.759, 1147.885 1345.623, 1147.501 1345.001 C 1146.708 1343.719, 1110.837 1326.269, 1096.236 1320.063 C 1081.577 1313.832, 1076.996 1312.914, 1073.342 1315.473 M 383 1327.643 C 382.175 1327.968, 379.554 1329.071, 377.175 1330.094 L 372.850 1331.954 375.621 1337.046 C 381.692 1348.199, 389.517 1351.030, 397.765 1345.055 C 402.287 1341.780, 403.453 1339.340, 402.523 1335.103 C 401.412 1330.049, 397.736 1327.625, 390.718 1327.322 C 387.298 1327.174, 383.825 1327.318, 383 1327.643 M 417.202 1380.958 C 407.020 1383.715, 398.576 1388.476, 391.408 1395.500 C 382.962 1403.777, 380.559 1408.651, 380.561 1417.500 C 380.564 1425.787, 383.602 1432.688, 389.547 1437.907 C 394.111 1441.915, 396.843 1442.979, 402.815 1443.076 L 407.500 1443.152 398.347 1447.662 C 382.873 1455.286, 373.647 1454.703, 367.311 1445.699 C 362.785 1439.267, 361.496 1435.173, 361.540 1427.360 L 361.580 1420.220 356.253 1423.227 C 353.323 1424.880, 349.030 1426.799, 346.713 1427.492 L 342.500 1428.750 342.609 1436.625 C 342.745 1446.555, 345.138 1451.936, 353.291 1460.652 C 367.337 1475.667, 385.251 1477.986, 406.500 1467.538 C 422.547 1459.647, 467.421 1428.104, 471.792 1421.641 C 477.159 1413.708, 475.283 1405.279, 466.111 1396.116 C 451.269 1381.289, 434.811 1376.188, 417.202 1380.958 M 427 1397.876 C 419.947 1400.143, 417.682 1401.351, 411.152 1406.323 C 404.251 1411.577, 401 1416.367, 401 1421.280 C 401 1431.474, 414.841 1434.103, 430.156 1426.818 C 437.652 1423.251, 452.289 1412.294, 453.390 1409.425 C 455.240 1404.605, 451.743 1400.123, 444.103 1397.519 C 438.393 1395.574, 433.867 1395.668, 427 1397.876 M 1029.500 1398.874 C 1020.957 1401.128, 1012.851 1408.046, 1008.845 1416.500 C 1004.568 1425.525, 1004.792 1434.036, 1009.568 1444.002 C 1014.726 1454.764, 1026.289 1465.974, 1038.417 1471.968 C 1046.275 1475.853, 1048.311 1476.427, 1055.565 1476.808 C 1062.783 1477.187, 1064.473 1476.930, 1069.296 1474.722 C 1080.835 1469.439, 1088.388 1458.041, 1088.404 1445.889 C 1088.414 1437.686, 1084.795 1429.744, 1076.520 1419.809 C 1064.351 1405.199, 1042.463 1395.454, 1029.500 1398.874 M 1024.306 1415.413 C 1014.488 1423.858, 1031.349 1449.680, 1052.372 1458.395 C 1061.498 1462.178, 1070.262 1459.449, 1071.582 1452.414 C 1073.471 1442.346, 1059.255 1425.284, 1041.616 1416.448 C 1033.232 1412.249, 1028.325 1411.956, 1024.306 1415.413 M 952.418 1417.969 C 949.435 1419.176, 944.999 1424.774, 945.004 1427.327 C 945.009 1430.122, 947.852 1434.742, 954.952 1443.487 C 962.042 1452.220, 972 1465.497, 972 1466.217 C 972 1466.514, 967.837 1469.903, 962.750 1473.750 C 957.663 1477.596, 949.256 1484.388, 944.069 1488.843 C 937.623 1494.379, 934.276 1496.644, 933.496 1495.996 C 932.868 1495.475, 928.112 1488.887, 922.927 1481.356 C 910.176 1462.835, 907.600 1460, 903.518 1460 C 900.583 1460, 895.706 1462.733, 893.765 1465.466 C 892.510 1467.233, 892.926 1471.954, 894.632 1475.300 C 898.681 1483.240, 930.031 1527.238, 948.755 1551.258 L 960.259 1566.016 964.380 1562.233 C 966.646 1560.152, 970.209 1557.398, 972.298 1556.114 C 975.642 1554.057, 975.941 1553.567, 974.798 1552.022 C 974.084 1551.057, 966.629 1541.165, 958.232 1530.041 L 942.963 1509.815 945.968 1505.729 C 954.697 1493.859, 976.117 1471.615, 977.381 1473.108 C 978.655 1474.614, 997.990 1502.543, 1003.959 1511.500 C 1007.992 1517.550, 1011.441 1522.678, 1011.625 1522.896 C 1011.809 1523.114, 1013.881 1521.528, 1016.230 1519.371 C 1018.578 1517.214, 1022.188 1514.412, 1024.250 1513.143 C 1026.313 1511.875, 1028 1510.458, 1028 1509.994 C 1028 1507.248, 996.697 1462.777, 976.882 1437.374 C 961.231 1417.309, 958.805 1415.385, 952.418 1417.969 M 481 1445.434 C 469.712 1448.584, 457.798 1456.823, 450.489 1466.532 C 444.141 1474.966, 441.729 1481.836, 442.188 1490.169 C 442.508 1495.969, 443.062 1497.572, 446.434 1502.468 C 452.392 1511.119, 461.771 1515.743, 469.722 1513.950 C 471.769 1513.488, 473.567 1513.234, 473.718 1513.384 C 473.868 1513.535, 471.124 1515.984, 467.620 1518.828 C 459.061 1525.771, 451.046 1529.404, 445.828 1528.704 C 436.379 1527.436, 426 1515.038, 426 1505.017 C 426 1500.778, 424.988 1500.756, 420.493 1504.900 C 418.182 1507.030, 414.470 1509.821, 412.244 1511.102 C 408.480 1513.268, 408.232 1513.680, 408.716 1516.966 C 410.388 1528.321, 419.472 1539.495, 431.741 1545.289 C 437.237 1547.884, 440.031 1548.547, 446.694 1548.840 C 457.127 1549.299, 465.148 1546.788, 474.673 1540.080 C 487.230 1531.236, 526.622 1488.684, 531.873 1478.290 C 537.182 1467.780, 531.852 1458.559, 515.749 1450.396 C 503.623 1444.249, 491.469 1442.514, 481 1445.434 M 486 1462.623 C 475.395 1467.932, 463 1482.892, 463 1490.381 C 463 1499.550, 473.831 1502.696, 485.491 1496.915 C 495.194 1492.104, 512.620 1472.274, 511.831 1466.941 C 511.236 1462.914, 506.667 1460.569, 498.699 1460.201 C 492.452 1459.913, 490.773 1460.233, 486 1462.623 M 299 1472.731 C 299 1478.123, 295.007 1491.390, 291.732 1496.882 C 287.786 1503.497, 278.867 1510.402, 271.498 1512.544 C 268.603 1513.385, 262.694 1514.395, 258.367 1514.787 L 250.500 1515.500 259 1523.931 C 276.778 1541.565, 303.454 1564.374, 326.500 1581.644 C 413.655 1646.959, 518.312 1690.499, 624 1705.411 C 656.608 1710.012, 680.555 1711.497, 721.500 1711.455 C 763.078 1711.412, 774.190 1710.700, 807.500 1705.947 C 920.186 1689.866, 1031.447 1642.006, 1117.500 1572.596 C 1135.500 1558.077, 1165.883 1529.945, 1168.170 1525.678 C 1168.708 1524.676, 1164.277 1527.884, 1158.324 1532.806 C 1115.859 1567.917, 1065.126 1600.165, 1017.770 1622.146 C 955.236 1651.172, 894.572 1667.722, 821.500 1675.689 C 798.128 1678.238, 723.846 1678.243, 699 1675.698 C 621.871 1667.798, 556.789 1649.617, 492.500 1618.011 C 427.843 1586.224, 372.752 1545.544, 317.503 1488.790 C 300.646 1471.474, 299 1470.045, 299 1472.731 M 549.245 1492.470 C 545.220 1494.248, 538.348 1504.614, 530.001 1521.500 C 523.014 1535.634, 520.514 1544.273, 521.502 1550.864 C 522.319 1556.307, 524.905 1561.673, 528.153 1564.657 C 533.313 1569.400, 546.142 1574, 554.210 1574 C 556.295 1574, 558 1574.353, 558 1574.784 C 558 1576.560, 547.176 1586.044, 543 1587.927 C 536.569 1590.827, 531.441 1590.561, 524.222 1586.953 C 517.118 1583.403, 512.687 1578.742, 509.222 1571.174 L 506.742 1565.756 504.143 1569.128 C 502.714 1570.983, 499.419 1574.771, 496.820 1577.546 L 492.096 1582.592 494.930 1587.546 C 507.179 1608.960, 537.308 1616.601, 557.961 1603.532 C 568.324 1596.974, 574.463 1589.033, 589.796 1562.356 C 603.963 1537.706, 612.175 1521.138, 611.437 1518.692 C 610.437 1515.379, 606.074 1511.179, 602.358 1509.953 C 596.247 1507.936, 594.188 1510.216, 583.389 1530.951 C 578.076 1541.153, 571.878 1552.812, 569.615 1556.861 L 565.500 1564.222 559.738 1563.625 C 553.847 1563.015, 547.370 1560.355, 545.093 1557.612 C 540.908 1552.570, 543.543 1542.824, 555.605 1518.729 C 559.812 1510.327, 563 1502.681, 563 1500.995 C 563 1497.451, 558.643 1492.309, 555 1491.552 C 553.625 1491.267, 551.035 1491.680, 549.245 1492.470 M 660.750 1494.719 C 657.038 1495.577, 654.006 1496.778, 654.013 1497.389 C 654.020 1498, 654.920 1501.353, 656.013 1504.839 C 658.207 1511.838, 658.610 1522.263, 656.922 1528.344 C 656.335 1530.458, 656.056 1532.389, 656.302 1532.635 C 657.385 1533.718, 668.098 1522.445, 670.428 1517.770 C 672.507 1513.596, 672.981 1511.257, 672.900 1505.554 C 672.717 1492.562, 672.176 1492.080, 660.750 1494.719 M 821.296 1525.423 C 803.275 1531.259, 796.135 1539.629, 797.256 1553.601 C 797.651 1558.527, 798.413 1560.796, 800.723 1563.938 C 807.452 1573.089, 815.566 1575.992, 834.478 1576.015 C 847.704 1576.031, 850.908 1576.955, 852.394 1581.178 C 853.962 1585.638, 851.609 1589.492, 845.789 1591.996 C 838.679 1595.054, 824.808 1596.666, 817.363 1595.299 C 814.139 1594.706, 811.412 1594.297, 811.305 1594.389 C 811.198 1594.481, 811.525 1596.344, 812.031 1598.528 C 812.538 1600.713, 812.963 1605.304, 812.976 1608.731 C 812.999 1614.676, 813.126 1614.995, 815.750 1615.693 C 824.709 1618.074, 842.427 1615.479, 854.605 1610.002 C 874.337 1601.129, 879.851 1580.719, 866.191 1567.115 C 859.704 1560.655, 854.176 1559.016, 838.635 1558.944 C 824.454 1558.878, 820.427 1557.776, 817.285 1553.102 C 813.902 1548.071, 814.262 1543.855, 818.383 1540.237 C 822.790 1536.368, 827.080 1535.664, 834.500 1537.593 C 848.732 1541.293, 849.430 1541.382, 852.541 1539.897 C 855.032 1538.708, 855.549 1537.816, 855.807 1534.254 C 856.053 1530.860, 855.633 1529.542, 853.685 1527.594 C 848.511 1522.421, 833.642 1521.424, 821.296 1525.423" stroke="none" fill="black" fill-rule="evenodd"/>
</svg>